<?xml version="1.0" standalone="no"?>
<!DOCTYPE svg PUBLIC "-//W3C//DTD SVG 20010904//EN"
 "http://www.w3.org/TR/2001/REC-SVG-20010904/DTD/svg10.dtd">
<svg version="1.0" xmlns="http://www.w3.org/2000/svg"
 width="866.000000pt" height="866.000000pt" viewBox="0 0 866.000000 866.000000"
 preserveAspectRatio="xMidYMid meet">

<g transform="translate(0.000000,866.000000) scale(0.100000,-0.100000)"
fill="#000000" stroke="none">
<path d="M0 4330 l0 -4330 4330 0 4330 0 0 4330 0 4330 -4330 0 -4330 0 0
-4330z m3158 1677 l2 -457 -472 2 -473 3 -3 445 c-1 245 0 451 3 458 3 10 103
12 472 10 l468 -3 3 -458z m3297 3 l0 -455 -1217 -3 -1218 -2 0 453 c0 250 3
457 7 460 3 4 551 6 1217 5 l1211 -3 0 -455z m-3295 -2585 c0 -685 -3 -1245
-6 -1245 -4 0 -217 211 -475 469 l-469 469 0 776 0 776 475 0 475 0 0 -1245z
m1818 483 l2 -758 740 0 740 0 -2 -497 -3 -498 -1215 0 -1215 0 -3 1258 -2
1257 477 -2 478 -3 3 -757z"/>
</g>
</svg>
